<mxfile host="app.diagrams.net" modified="2024-01-24T02:38:54.854Z" agent="Mozilla/5.0 (Windows NT 10.0; Win64; x64) AppleWebKit/537.36 (KHTML, like Gecko) Chrome/120.0.0.0 Safari/537.36 Edg/120.0.0.0" version="23.0.0" etag="NuKUh_wiLCIOuZ9XgqfK" type="github">
  <diagram name="Page-1" id="YR_0m5eo146G1bffsBeB">
    <mxGraphModel>
      <root>
        <mxCell id="0" />
        <mxCell id="1" parent="0" />
      </root>
    </mxGraphModel>
  </diagram>
</mxfile>
